<svg width="250" height="250" viewBox="0 0 250 250" fill="none" xmlns="http://www.w3.org/2000/svg">
<path d="M70.5127 86.5C141.478 58.4572 204.846 70.1667 200.013 29C291.013 182.5 154.544 215.167 45.5438 220.5C10.2104 171.833 8.51267 111 70.5127 86.5Z" fill="#D9D9D9" stroke="#8AFF8A" stroke-width="5"/>
<path d="M68.5 110.5H181.5M68.5 110.5V179M68.5 110.5L95.5 130.5M181.5 110.5V179M181.5 110.5L152 130.5M68.5 179H181.5M68.5 179L95.5 130.5M181.5 179L152 130.5M95.5 130.5L122.5 150.5L152 130.5" stroke="black" stroke-width="5" stroke-linejoin="round"/>
<path d="M61 99H174M61 99V167.5M61 99L88 119M174 99V167.5M174 99L144.5 119M61 167.5H174M61 167.5L88 119M174 167.5L144.5 119M88 119L115 139L144.5 119" stroke="#8AFF8A" stroke-width="5" stroke-linejoin="round"/>
</svg>
