<svg width="250" height="250" viewBox="0 0 250 250" fill="none" xmlns="http://www.w3.org/2000/svg">
<g filter="url(#filter0_i_2_2)">
<path d="M70.5127 86.5C141.478 58.4572 204.846 70.1667 200.013 29C291.013 182.5 154.544 215.167 45.5438 220.5C10.2104 171.833 8.51267 111 70.5127 86.5Z" fill="#340D73"/>
</g>
<g filter="url(#filter1_i_2_2)">
<path d="M68.5 110.5H181.5M68.5 110.5V179M68.5 110.5L95.5 130.5M181.5 110.5V179M181.5 110.5L152 130.5M68.5 179H181.5M68.5 179L95.5 130.5M181.5 179L152 130.5M95.5 130.5L122.5 150.5L152 130.5" stroke="white" stroke-width="5" stroke-linejoin="round"/>
</g>
<defs>
<filter id="filter0_i_2_2" x="21" y="29" width="213.805" height="196.5" filterUnits="userSpaceOnUse" color-interpolation-filters="sRGB">
<feFlood flood-opacity="0" result="BackgroundImageFix"/>
<feBlend mode="normal" in="SourceGraphic" in2="BackgroundImageFix" result="shape"/>
<feColorMatrix in="SourceAlpha" type="matrix" values="0 0 0 0 0 0 0 0 0 0 0 0 0 0 0 0 0 0 127 0" result="hardAlpha"/>
<feOffset dx="5" dy="5"/>
<feGaussianBlur stdDeviation="5"/>
<feComposite in2="hardAlpha" operator="arithmetic" k2="-1" k3="1"/>
<feColorMatrix type="matrix" values="0 0 0 0 1 0 0 0 0 1 0 0 0 0 1 0 0 0 0.25 0"/>
<feBlend mode="normal" in2="shape" result="effect1_innerShadow_2_2"/>
</filter>
<filter id="filter1_i_2_2" x="66" y="108" width="119" height="74.5" filterUnits="userSpaceOnUse" color-interpolation-filters="sRGB">
<feFlood flood-opacity="0" result="BackgroundImageFix"/>
<feBlend mode="normal" in="SourceGraphic" in2="BackgroundImageFix" result="shape"/>
<feColorMatrix in="SourceAlpha" type="matrix" values="0 0 0 0 0 0 0 0 0 0 0 0 0 0 0 0 0 0 127 0" result="hardAlpha"/>
<feOffset dx="1" dy="1"/>
<feGaussianBlur stdDeviation="1"/>
<feComposite in2="hardAlpha" operator="arithmetic" k2="-1" k3="1"/>
<feColorMatrix type="matrix" values="0 0 0 0 0.203922 0 0 0 0 0.0509804 0 0 0 0 0.45098 0 0 0 1 0"/>
<feBlend mode="normal" in2="shape" result="effect1_innerShadow_2_2"/>
</filter>
</defs>
</svg>
