<svg width="225" height="225" viewBox="0 0 225 225" fill="none" xmlns="http://www.w3.org/2000/svg">
<g filter="url(#filter0_i_1_16)">
<path d="M33.5437 208.5C142.544 203.167 279.012 170.5 188.013 17C196.204 58.1667 176.779 154.1 33.5437 208.5Z" fill="black"/>
</g>
<path d="M33.5437 208.5C142.544 203.167 279.012 170.5 188.013 17C196.204 58.1667 176.779 154.1 33.5437 208.5Z" stroke="#008000" stroke-width="5" stroke-linejoin="round"/>
<g filter="url(#filter1_i_1_16)">
<path d="M58.5127 74.5C129.478 46.4572 192.846 58.1667 188.013 17C196.204 58.1667 176.779 154.1 33.5438 208.5C-1.78958 159.833 -3.48733 99 58.5127 74.5Z" fill="white"/>
</g>
<path d="M58.5127 74.5C129.478 46.4572 192.846 58.1667 188.013 17C196.204 58.1667 176.779 154.1 33.5438 208.5C-1.78958 159.833 -3.48733 99 58.5127 74.5Z" stroke="#008000" stroke-width="5" stroke-linejoin="round"/>
<defs>
<filter id="filter0_i_1_16" x="31.0434" y="14.4997" width="189.262" height="212.5" filterUnits="userSpaceOnUse" color-interpolation-filters="sRGB">
<feFlood flood-opacity="0" result="BackgroundImageFix"/>
<feBlend mode="normal" in="SourceGraphic" in2="BackgroundImageFix" result="shape"/>
<feColorMatrix in="SourceAlpha" type="matrix" values="0 0 0 0 0 0 0 0 0 0 0 0 0 0 0 0 0 0 127 0" result="hardAlpha"/>
<feMorphology radius="8" operator="dilate" in="SourceAlpha" result="effect1_innerShadow_1_16"/>
<feOffset dy="16"/>
<feGaussianBlur stdDeviation="16"/>
<feComposite in2="hardAlpha" operator="arithmetic" k2="-1" k3="1"/>
<feColorMatrix type="matrix" values="0 0 0 0 0.0470588 0 0 0 0 0.0470588 0 0 0 0 0.0509804 0 0 0 0.4 0"/>
<feBlend mode="normal" in2="shape" result="effect1_innerShadow_1_16"/>
</filter>
<filter id="filter1_i_1_16" x="6.49963" y="14.4997" width="185.606" height="212.501" filterUnits="userSpaceOnUse" color-interpolation-filters="sRGB">
<feFlood flood-opacity="0" result="BackgroundImageFix"/>
<feBlend mode="normal" in="SourceGraphic" in2="BackgroundImageFix" result="shape"/>
<feColorMatrix in="SourceAlpha" type="matrix" values="0 0 0 0 0 0 0 0 0 0 0 0 0 0 0 0 0 0 127 0" result="hardAlpha"/>
<feMorphology radius="8" operator="dilate" in="SourceAlpha" result="effect1_innerShadow_1_16"/>
<feOffset dy="16"/>
<feGaussianBlur stdDeviation="16"/>
<feComposite in2="hardAlpha" operator="arithmetic" k2="-1" k3="1"/>
<feColorMatrix type="matrix" values="0 0 0 0 0.0470588 0 0 0 0 0.0470588 0 0 0 0 0.0509804 0 0 0 0.4 0"/>
<feBlend mode="normal" in2="shape" result="effect1_innerShadow_1_16"/>
</filter>
</defs>
</svg>
